<svg width="211" height="24" viewBox="0 0 211 24" fill="none" xmlns="http://www.w3.org/2000/svg">
<g clip-path="url(#clip0_1_400)">
<path d="M6.99984 14.6883L4.47617 16.0833L4.95817 13.1286L2.9165 11.036L5.73822 10.6049L6.99984 7.91663L8.26145 10.6049L11.0832 11.036L9.0415 13.1286L9.5235 16.0833L6.99984 14.6883Z" fill="#FFDD45" stroke="#FFDD45" stroke-width="3" stroke-linecap="square"/>
</g>
<g clip-path="url(#clip1_1_400)">
<path d="M26.9998 14.6883L24.4762 16.0833L24.9582 13.1286L22.9165 11.036L25.7382 10.6049L26.9998 7.91663L28.2615 10.6049L31.0832 11.036L29.0415 13.1286L29.5235 16.0833L26.9998 14.6883Z" fill="#FFDD45" stroke="#FFDD45" stroke-width="3" stroke-linecap="square"/>
</g>
<g clip-path="url(#clip2_1_400)">
<path d="M46.9998 14.6883L44.4762 16.0833L44.9582 13.1286L42.9165 11.036L45.7382 10.6049L46.9998 7.91663L48.2615 10.6049L51.0832 11.036L49.0415 13.1286L49.5235 16.0833L46.9998 14.6883Z" fill="#FFDD45" stroke="#FFDD45" stroke-width="3" stroke-linecap="square"/>
</g>
<g clip-path="url(#clip3_1_400)">
<path d="M66.9998 14.6883L64.4762 16.0833L64.9582 13.1286L62.9165 11.036L65.7382 10.6049L66.9998 7.91663L68.2615 10.6049L71.0832 11.036L69.0415 13.1286L69.5235 16.0833L66.9998 14.6883Z" fill="#FFDD45" stroke="#FFDD45" stroke-width="3" stroke-linecap="square"/>
</g>
<g clip-path="url(#clip4_1_400)">
<path d="M86.9998 14.6883L84.4762 16.0833L84.9582 13.1286L82.9165 11.036L85.7382 10.6049L86.9998 7.91663L88.2615 10.6049L91.0832 11.036L89.0415 13.1286L89.5235 16.0833L86.9998 14.6883Z" fill="#FFDD45" stroke="#FFDD45" stroke-width="3" stroke-linecap="square"/>
</g>
<path d="M111.448 8.138H106.38V11.442C106.613 11.1247 106.949 10.8727 107.388 10.686C107.827 10.4993 108.307 10.406 108.83 10.406C109.53 10.406 110.109 10.5553 110.566 10.854C111.033 11.1433 111.373 11.5307 111.588 12.016C111.812 12.492 111.924 13.024 111.924 13.612C111.924 14.6293 111.639 15.46 111.07 16.104C110.501 16.748 109.665 17.07 108.564 17.07C107.575 17.07 106.767 16.804 106.142 16.272C105.517 15.7307 105.167 15.0073 105.092 14.102H106.352C106.455 14.6807 106.693 15.1333 107.066 15.46C107.449 15.7773 107.929 15.936 108.508 15.936C109.227 15.936 109.768 15.7213 110.132 15.292C110.496 14.8627 110.678 14.298 110.678 13.598C110.678 12.9167 110.491 12.3847 110.118 12.002C109.745 11.6193 109.217 11.428 108.536 11.428C108.051 11.428 107.626 11.5353 107.262 11.75C106.898 11.9553 106.623 12.2353 106.436 12.59H105.204V7.004H111.448V8.138ZM114.587 15.502V17H113.047V15.502H114.587ZM115.818 12.002C115.818 13.5887 116.079 14.8253 116.602 15.712C117.124 16.5987 118.03 17.042 119.318 17.042C120.606 17.042 121.511 16.5987 122.034 15.712C122.566 14.8253 122.832 13.5887 122.832 12.002C122.832 10.434 122.566 9.20667 122.034 8.32C121.511 7.43333 120.606 6.99 119.318 6.99C118.03 6.99 117.124 7.43333 116.602 8.32C116.079 9.19733 115.818 10.4247 115.818 12.002ZM121.572 12.002C121.572 12.814 121.511 13.4953 121.39 14.046C121.278 14.5873 121.058 15.0213 120.732 15.348C120.405 15.6747 119.934 15.838 119.318 15.838C118.711 15.838 118.244 15.6747 117.918 15.348C117.591 15.0213 117.367 14.5873 117.246 14.046C117.134 13.4953 117.078 12.814 117.078 12.002C117.078 11.1993 117.134 10.5273 117.246 9.986C117.367 9.44467 117.591 9.01533 117.918 8.698C118.244 8.37133 118.711 8.208 119.318 8.208C119.934 8.208 120.405 8.37133 120.732 8.698C121.058 9.01533 121.278 9.44467 121.39 9.986C121.511 10.5273 121.572 11.1993 121.572 12.002Z" fill="#212121"/>
<path d="M146.588 16.02C148.175 14.956 149.444 13.9013 150.396 12.856C151.348 11.8013 151.824 10.8213 151.824 9.916C151.824 9.356 151.679 8.908 151.39 8.572C151.11 8.22667 150.653 8.054 150.018 8.054C149.365 8.054 148.87 8.264 148.534 8.684C148.198 9.09467 148.011 9.664 147.974 10.392H146.714C146.779 9.29067 147.12 8.446 147.736 7.858C148.352 7.26067 149.145 6.962 150.116 6.962C151.04 6.962 151.773 7.20933 152.314 7.704C152.855 8.19867 153.126 8.89867 153.126 9.804C153.126 10.5507 152.883 11.3113 152.398 12.086C151.922 12.8513 151.32 13.5653 150.592 14.228C149.873 14.8813 149.131 15.4367 148.366 15.894H153.378V16.944H146.588V16.02ZM159.698 10.868C159.95 10.336 160.319 9.92533 160.804 9.636C161.29 9.33733 161.868 9.188 162.54 9.188V10.574H162.148C161.43 10.574 160.842 10.7607 160.384 11.134C159.927 11.498 159.698 12.1047 159.698 12.954V17H158.424V9.314H159.698V10.868ZM170.867 12.73C170.867 13.0007 170.849 13.234 170.811 13.43H164.665C164.693 14.3073 164.941 14.9653 165.407 15.404C165.883 15.8427 166.462 16.062 167.143 16.062C167.759 16.062 168.273 15.908 168.683 15.6C169.103 15.2827 169.36 14.8627 169.453 14.34H170.811C170.718 14.872 170.508 15.348 170.181 15.768C169.864 16.188 169.449 16.5147 168.935 16.748C168.422 16.9813 167.843 17.098 167.199 17.098C166.462 17.098 165.809 16.9393 165.239 16.622C164.67 16.3047 164.222 15.852 163.895 15.264C163.578 14.6667 163.419 13.9667 163.419 13.164C163.419 12.3613 163.578 11.6613 163.895 11.064C164.222 10.4667 164.67 10.0093 165.239 9.692C165.809 9.37467 166.462 9.216 167.199 9.216C167.946 9.216 168.595 9.37467 169.145 9.692C169.705 10.0093 170.13 10.434 170.419 10.966C170.718 11.498 170.867 12.086 170.867 12.73ZM169.579 12.814C169.607 12.2447 169.514 11.7687 169.299 11.386C169.085 11.0033 168.791 10.7187 168.417 10.532C168.044 10.3453 167.638 10.252 167.199 10.252C166.499 10.252 165.911 10.4713 165.435 10.91C164.959 11.3393 164.703 11.974 164.665 12.814H169.579ZM175.516 15.642L177.896 9.314H179.268L176.258 17H174.746L171.736 9.314H173.108L175.516 15.642ZM180.294 7.06C180.294 6.82667 180.373 6.64 180.532 6.5C180.691 6.35067 180.901 6.276 181.162 6.276C181.423 6.276 181.633 6.35067 181.792 6.5C181.951 6.64 182.03 6.82667 182.03 7.06C182.03 7.29333 181.951 7.48467 181.792 7.634C181.633 7.774 181.423 7.844 181.162 7.844C180.901 7.844 180.691 7.774 180.532 7.634C180.373 7.48467 180.294 7.29333 180.294 7.06ZM181.792 9.314V17H180.518V9.314H181.792ZM190.91 12.73C190.91 13.0007 190.892 13.234 190.854 13.43H184.708C184.736 14.3073 184.984 14.9653 185.45 15.404C185.926 15.8427 186.505 16.062 187.186 16.062C187.802 16.062 188.316 15.908 188.726 15.6C189.146 15.2827 189.403 14.8627 189.496 14.34H190.854C190.761 14.872 190.551 15.348 190.224 15.768C189.907 16.188 189.492 16.5147 188.978 16.748C188.465 16.9813 187.886 17.098 187.242 17.098C186.505 17.098 185.852 16.9393 185.282 16.622C184.713 16.3047 184.265 15.852 183.938 15.264C183.621 14.6667 183.462 13.9667 183.462 13.164C183.462 12.3613 183.621 11.6613 183.938 11.064C184.265 10.4667 184.713 10.0093 185.282 9.692C185.852 9.37467 186.505 9.216 187.242 9.216C187.989 9.216 188.638 9.37467 189.188 9.692C189.748 10.0093 190.173 10.434 190.462 10.966C190.761 11.498 190.91 12.086 190.91 12.73ZM189.622 12.814C189.65 12.2447 189.557 11.7687 189.342 11.386C189.128 11.0033 188.834 10.7187 188.46 10.532C188.087 10.3453 187.681 10.252 187.242 10.252C186.542 10.252 185.954 10.4713 185.478 10.91C185.002 11.3393 184.746 11.974 184.708 12.814H189.622ZM203.133 9.314L200.921 17H199.549L197.435 10.742L195.307 17H193.921L191.737 9.314H193.025L194.663 15.782L196.791 9.314H198.121L200.263 15.768L201.915 9.314H203.133ZM206.729 9.216C207.597 9.216 208.292 9.44467 208.815 9.902C209.347 10.35 209.669 10.9567 209.781 11.722H208.563C208.507 11.2647 208.315 10.8913 207.989 10.602C207.671 10.3033 207.242 10.154 206.701 10.154C206.243 10.154 205.884 10.266 205.623 10.49C205.371 10.7047 205.245 10.9987 205.245 11.372C205.245 11.652 205.329 11.8807 205.497 12.058C205.674 12.226 205.889 12.3567 206.141 12.45C206.402 12.534 206.757 12.6273 207.205 12.73C207.774 12.8607 208.231 12.996 208.577 13.136C208.931 13.2667 209.23 13.4813 209.473 13.78C209.725 14.0787 209.851 14.48 209.851 14.984C209.851 15.6093 209.613 16.118 209.137 16.51C208.67 16.902 208.045 17.098 207.261 17.098C206.346 17.098 205.599 16.8787 205.021 16.44C204.442 16.0013 204.101 15.39 203.999 14.606H205.231C205.277 15.0727 205.478 15.4507 205.833 15.74C206.197 16.0293 206.673 16.174 207.261 16.174C207.699 16.174 208.04 16.062 208.283 15.838C208.535 15.614 208.661 15.32 208.661 14.956C208.661 14.6573 208.572 14.4193 208.395 14.242C208.217 14.0647 207.998 13.9293 207.737 13.836C207.475 13.7427 207.116 13.6447 206.659 13.542C206.089 13.4113 205.632 13.2807 205.287 13.15C204.951 13.0193 204.661 12.814 204.419 12.534C204.185 12.2447 204.069 11.8573 204.069 11.372C204.069 10.728 204.307 10.21 204.783 9.818C205.259 9.41667 205.907 9.216 206.729 9.216Z" fill="#212121"/>
<path d="M135.156 18.498H133.868V5.856H135.156V18.498Z" fill="#212121"/>
<defs>
<clipPath id="clip0_1_400">
<rect width="14" height="14" fill="white" transform="translate(0 5)"/>
</clipPath>
<clipPath id="clip1_1_400">
<rect width="14" height="14" fill="white" transform="translate(20 5)"/>
</clipPath>
<clipPath id="clip2_1_400">
<rect width="14" height="14" fill="white" transform="translate(40 5)"/>
</clipPath>
<clipPath id="clip3_1_400">
<rect width="14" height="14" fill="white" transform="translate(60 5)"/>
</clipPath>
<clipPath id="clip4_1_400">
<rect width="14" height="14" fill="white" transform="translate(80 5)"/>
</clipPath>
</defs>
</svg>
