<svg width="266" height="48" viewBox="0 0 266 48" fill="none" xmlns="http://www.w3.org/2000/svg">
<path d="M64.528 26.992C64.528 27.5467 64.3947 28.064 64.128 28.544C63.8613 29.0133 63.456 29.392 62.912 29.68C62.368 29.968 61.7013 30.112 60.912 30.112C60.144 30.112 59.456 29.9787 58.848 29.712C58.24 29.4347 57.7547 29.0507 57.392 28.56C57.0293 28.0693 56.8213 27.504 56.768 26.864H58.72C58.7733 27.3547 58.9813 27.776 59.344 28.128C59.7173 28.48 60.2133 28.656 60.832 28.656C61.3867 28.656 61.8133 28.5067 62.112 28.208C62.4213 27.9093 62.576 27.5253 62.576 27.056C62.576 26.6507 62.464 26.32 62.24 26.064C62.016 25.7973 61.7387 25.5893 61.408 25.44C61.0773 25.2907 60.624 25.12 60.048 24.928C59.344 24.704 58.768 24.48 58.32 24.256C57.8827 24.032 57.5093 23.7067 57.2 23.28C56.8907 22.8533 56.736 22.2933 56.736 21.6C56.736 20.992 56.8853 20.4587 57.184 20C57.4827 19.5413 57.9093 19.1893 58.464 18.944C59.0187 18.688 59.6587 18.56 60.384 18.56C61.536 18.56 62.448 18.8373 63.12 19.392C63.8027 19.9467 64.192 20.672 64.288 21.568H62.32C62.2453 21.1413 62.0427 20.7787 61.712 20.48C61.392 20.1707 60.9493 20.016 60.384 20.016C59.872 20.016 59.4613 20.1493 59.152 20.416C58.8427 20.672 58.688 21.0453 58.688 21.536C58.688 21.92 58.7947 22.24 59.008 22.496C59.2213 22.7413 59.488 22.9387 59.808 23.088C60.1387 23.2267 60.5867 23.392 61.152 23.584C61.8667 23.808 62.448 24.0373 62.896 24.272C63.3547 24.496 63.7387 24.8267 64.048 25.264C64.368 25.7013 64.528 26.2773 64.528 26.992ZM69.89 21.072C70.69 21.072 71.3727 21.2693 71.938 21.664C72.5033 22.0587 72.9033 22.5813 73.138 23.232V21.184H74.962V30H73.138V27.952C72.9033 28.6027 72.5033 29.1253 71.938 29.52C71.3727 29.9147 70.69 30.112 69.89 30.112C69.122 30.112 68.434 29.9307 67.826 29.568C67.2287 29.2053 66.7593 28.6827 66.418 28C66.0767 27.3173 65.906 26.512 65.906 25.584C65.906 24.6667 66.0767 23.8667 66.418 23.184C66.7593 22.5013 67.2287 21.9787 67.826 21.616C68.434 21.2533 69.122 21.072 69.89 21.072ZM70.45 22.672C69.6393 22.672 68.9887 22.9333 68.498 23.456C68.018 23.968 67.778 24.6773 67.778 25.584C67.778 26.4907 68.018 27.2053 68.498 27.728C68.9887 28.24 69.6393 28.496 70.45 28.496C70.962 28.496 71.4207 28.3787 71.826 28.144C72.2313 27.8987 72.5513 27.5573 72.786 27.12C73.0207 26.6827 73.138 26.1707 73.138 25.584C73.138 25.008 73.0207 24.5013 72.786 24.064C72.5513 23.616 72.2313 23.2747 71.826 23.04C71.4207 22.7947 70.962 22.672 70.45 22.672ZM81.2629 19.36C80.5482 19.328 80.0469 19.4453 79.7589 19.712C79.4709 19.968 79.3269 20.4107 79.3269 21.04V21.184H81.2629V22.752H79.3269V30H77.4869V22.752H76.2869V21.184H77.4869V20.896C77.4869 19.8187 77.8015 19.0133 78.4309 18.48C79.0602 17.936 80.0042 17.696 81.2629 17.76V19.36ZM90.921 25.168C90.921 25.4667 90.8997 25.728 90.857 25.952H84.073C84.105 26.8587 84.3557 27.5307 84.825 27.968C85.2943 28.4053 85.8757 28.624 86.569 28.624C87.177 28.624 87.689 28.4693 88.105 28.16C88.5317 27.8507 88.793 27.44 88.889 26.928H90.841C90.7237 27.5467 90.4783 28.096 90.105 28.576C89.7317 29.056 89.2463 29.4347 88.649 29.712C88.0517 29.9787 87.385 30.112 86.649 30.112C85.7957 30.112 85.0383 29.9307 84.377 29.568C83.7263 29.2053 83.2143 28.6827 82.841 28C82.4677 27.3173 82.281 26.512 82.281 25.584C82.281 24.6667 82.4677 23.8667 82.841 23.184C83.2143 22.5013 83.7263 21.9787 84.377 21.616C85.0383 21.2533 85.7957 21.072 86.649 21.072C87.513 21.072 88.265 21.2533 88.905 21.616C89.5557 21.968 90.0517 22.4587 90.393 23.088C90.745 23.7067 90.921 24.4 90.921 25.168ZM89.081 25.12C89.1023 24.544 89.001 24.064 88.777 23.68C88.5637 23.2853 88.265 22.9973 87.881 22.816C87.5077 22.624 87.097 22.528 86.649 22.528C85.9343 22.528 85.337 22.7467 84.857 23.184C84.377 23.6213 84.1157 24.2667 84.073 25.12H89.081ZM99.9681 21.072C100.768 21.072 101.451 21.2693 102.016 21.664C102.581 22.0587 102.981 22.5813 103.216 23.232V21.184H105.04V30H103.216V27.952C102.981 28.6027 102.581 29.1253 102.016 29.52C101.451 29.9147 100.768 30.112 99.9681 30.112C99.2001 30.112 98.5121 29.9307 97.9041 29.568C97.3068 29.2053 96.8375 28.6827 96.4961 28C96.1548 27.3173 95.9841 26.512 95.9841 25.584C95.9841 24.6667 96.1548 23.8667 96.4961 23.184C96.8375 22.5013 97.3068 21.9787 97.9041 21.616C98.5121 21.2533 99.2001 21.072 99.9681 21.072ZM100.528 22.672C99.7175 22.672 99.0668 22.9333 98.5761 23.456C98.0961 23.968 97.8561 24.6773 97.8561 25.584C97.8561 26.4907 98.0961 27.2053 98.5761 27.728C99.0668 28.24 99.7175 28.496 100.528 28.496C101.04 28.496 101.499 28.3787 101.904 28.144C102.309 27.8987 102.629 27.5573 102.864 27.12C103.099 26.6827 103.216 26.1707 103.216 25.584C103.216 25.008 103.099 24.5013 102.864 24.064C102.629 23.616 102.309 23.2747 101.904 23.04C101.499 22.7947 101.04 22.672 100.528 22.672ZM112.157 21.04C113.181 21.04 114.002 21.3707 114.621 22.032C115.24 22.6933 115.549 23.6373 115.549 24.864V30H113.725V25.056C113.725 24.2667 113.522 23.6587 113.117 23.232C112.712 22.7947 112.157 22.576 111.453 22.576C110.728 22.576 110.146 22.8107 109.709 23.28C109.272 23.7387 109.053 24.416 109.053 25.312V30H107.229V21.184H109.053V23.12C109.288 22.4587 109.682 21.9467 110.237 21.584C110.792 21.2213 111.432 21.04 112.157 21.04ZM121.218 21.072C122.018 21.072 122.701 21.2693 123.266 21.664C123.831 22.0587 124.226 22.5813 124.45 23.232V18.16H126.29V30H124.45V27.952C124.226 28.6027 123.831 29.1253 123.266 29.52C122.701 29.9147 122.018 30.112 121.218 30.112C120.45 30.112 119.762 29.9307 119.154 29.568C118.557 29.2053 118.087 28.6827 117.746 28C117.405 27.3173 117.234 26.512 117.234 25.584C117.234 24.6667 117.405 23.8667 117.746 23.184C118.087 22.5013 118.557 21.9787 119.154 21.616C119.762 21.2533 120.45 21.072 121.218 21.072ZM121.778 22.672C120.967 22.672 120.317 22.9333 119.826 23.456C119.346 23.968 119.106 24.6773 119.106 25.584C119.106 26.4907 119.346 27.2053 119.826 27.728C120.317 28.24 120.967 28.496 121.778 28.496C122.29 28.496 122.749 28.3787 123.154 28.144C123.559 27.8987 123.879 27.5573 124.114 27.12C124.349 26.6827 124.466 26.1707 124.466 25.584C124.466 25.008 124.349 24.5013 124.114 24.064C123.879 23.616 123.559 23.2747 123.154 23.04C122.749 22.7947 122.29 22.672 121.778 22.672ZM135.125 21.072C136.16 21.072 136.986 21.3387 137.605 21.872C138.234 22.3947 138.618 23.0987 138.757 23.984H137.029C136.954 23.504 136.746 23.12 136.405 22.832C136.074 22.5333 135.632 22.384 135.077 22.384C134.618 22.384 134.261 22.496 134.005 22.72C133.76 22.9333 133.637 23.2267 133.637 23.6C133.637 23.8773 133.728 24.1013 133.909 24.272C134.09 24.4427 134.314 24.576 134.581 24.672C134.858 24.768 135.248 24.8747 135.749 24.992C136.41 25.1413 136.944 25.296 137.349 25.456C137.765 25.616 138.117 25.872 138.405 26.224C138.704 26.5653 138.853 27.0347 138.853 27.632C138.853 28.368 138.57 28.9653 138.005 29.424C137.45 29.8827 136.698 30.112 135.749 30.112C134.65 30.112 133.76 29.856 133.077 29.344C132.405 28.832 132 28.1173 131.861 27.2H133.637C133.69 27.68 133.904 28.0693 134.277 28.368C134.65 28.6667 135.141 28.816 135.749 28.816C136.186 28.816 136.528 28.704 136.773 28.48C137.029 28.2453 137.157 27.952 137.157 27.6C137.157 27.2907 137.061 27.0453 136.869 26.864C136.677 26.6827 136.437 26.544 136.149 26.448C135.861 26.3413 135.466 26.2347 134.965 26.128C134.325 25.9787 133.802 25.8293 133.397 25.68C133.002 25.5307 132.661 25.2907 132.373 24.96C132.096 24.6187 131.957 24.16 131.957 23.584C131.957 22.8373 132.234 22.2347 132.789 21.776C133.354 21.3067 134.133 21.072 135.125 21.072ZM148.874 25.168C148.874 25.4667 148.853 25.728 148.81 25.952H142.026C142.058 26.8587 142.309 27.5307 142.778 27.968C143.247 28.4053 143.829 28.624 144.522 28.624C145.13 28.624 145.642 28.4693 146.058 28.16C146.485 27.8507 146.746 27.44 146.842 26.928H148.794C148.677 27.5467 148.431 28.096 148.058 28.576C147.685 29.056 147.199 29.4347 146.602 29.712C146.005 29.9787 145.338 30.112 144.602 30.112C143.749 30.112 142.991 29.9307 142.33 29.568C141.679 29.2053 141.167 28.6827 140.794 28C140.421 27.3173 140.234 26.512 140.234 25.584C140.234 24.6667 140.421 23.8667 140.794 23.184C141.167 22.5013 141.679 21.9787 142.33 21.616C142.991 21.2533 143.749 21.072 144.602 21.072C145.466 21.072 146.218 21.2533 146.858 21.616C147.509 21.968 148.005 22.4587 148.346 23.088C148.698 23.7067 148.874 24.4 148.874 25.168ZM147.034 25.12C147.055 24.544 146.954 24.064 146.73 23.68C146.517 23.2853 146.218 22.9973 145.834 22.816C145.461 22.624 145.05 22.528 144.602 22.528C143.887 22.528 143.29 22.7467 142.81 23.184C142.33 23.6213 142.069 24.2667 142.026 25.12H147.034ZM154.555 21.072C155.697 21.072 156.641 21.376 157.387 21.984C158.134 22.5813 158.598 23.3973 158.779 24.432H156.843C156.737 23.8773 156.475 23.4453 156.059 23.136C155.654 22.816 155.142 22.656 154.523 22.656C153.819 22.656 153.233 22.9067 152.763 23.408C152.294 23.8987 152.059 24.624 152.059 25.584C152.059 26.544 152.294 27.2747 152.763 27.776C153.233 28.2773 153.819 28.528 154.523 28.528C155.142 28.528 155.654 28.368 156.059 28.048C156.475 27.728 156.737 27.2907 156.843 26.736H158.779C158.598 27.7707 158.134 28.592 157.387 29.2C156.641 29.808 155.697 30.112 154.555 30.112C153.702 30.112 152.945 29.9307 152.283 29.568C151.633 29.2053 151.121 28.6827 150.747 28C150.374 27.3173 150.187 26.512 150.187 25.584C150.187 24.6667 150.374 23.8667 150.747 23.184C151.121 22.5013 151.633 21.9787 152.283 21.616C152.945 21.2533 153.702 21.072 154.555 21.072ZM168.67 21.184V30H166.83V28.08C166.606 28.7307 166.216 29.2373 165.662 29.6C165.107 29.952 164.462 30.128 163.726 30.128C162.702 30.128 161.88 29.7973 161.262 29.136C160.643 28.4747 160.334 27.5307 160.334 26.304V21.184H162.158V26.112C162.158 26.912 162.36 27.5307 162.766 27.968C163.171 28.3947 163.726 28.608 164.43 28.608C165.155 28.608 165.736 28.3733 166.174 27.904C166.611 27.4347 166.83 26.752 166.83 25.856V21.184H168.67ZM172.678 22.912C172.977 22.336 173.403 21.8827 173.958 21.552C174.513 21.2107 175.153 21.04 175.878 21.04V23.024H175.334C174.534 23.024 173.889 23.2213 173.398 23.616C172.918 24 172.678 24.64 172.678 25.536V30H170.854V21.184H172.678V22.912ZM185.437 25.168C185.437 25.4667 185.415 25.728 185.373 25.952H178.589C178.621 26.8587 178.871 27.5307 179.341 27.968C179.81 28.4053 180.391 28.624 181.085 28.624C181.693 28.624 182.205 28.4693 182.621 28.16C183.047 27.8507 183.309 27.44 183.405 26.928H185.357C185.239 27.5467 184.994 28.096 184.621 28.576C184.247 29.056 183.762 29.4347 183.165 29.712C182.567 29.9787 181.901 30.112 181.165 30.112C180.311 30.112 179.554 29.9307 178.893 29.568C178.242 29.2053 177.73 28.6827 177.357 28C176.983 27.3173 176.797 26.512 176.797 25.584C176.797 24.6667 176.983 23.8667 177.357 23.184C177.73 22.5013 178.242 21.9787 178.893 21.616C179.554 21.2533 180.311 21.072 181.165 21.072C182.029 21.072 182.781 21.2533 183.421 21.616C184.071 21.968 184.567 22.4587 184.909 23.088C185.261 23.7067 185.437 24.4 185.437 25.168ZM183.597 25.12C183.618 24.544 183.517 24.064 183.293 23.68C183.079 23.2853 182.781 22.9973 182.397 22.816C182.023 22.624 181.613 22.528 181.165 22.528C180.45 22.528 179.853 22.7467 179.373 23.184C178.893 23.6213 178.631 24.2667 178.589 25.12H183.597ZM193.844 21.072C194.878 21.072 195.705 21.3387 196.324 21.872C196.953 22.3947 197.337 23.0987 197.476 23.984H195.748C195.673 23.504 195.465 23.12 195.124 22.832C194.793 22.5333 194.35 22.384 193.796 22.384C193.337 22.384 192.98 22.496 192.724 22.72C192.478 22.9333 192.356 23.2267 192.356 23.6C192.356 23.8773 192.446 24.1013 192.628 24.272C192.809 24.4427 193.033 24.576 193.3 24.672C193.577 24.768 193.966 24.8747 194.468 24.992C195.129 25.1413 195.662 25.296 196.068 25.456C196.484 25.616 196.836 25.872 197.124 26.224C197.422 26.5653 197.572 27.0347 197.572 27.632C197.572 28.368 197.289 28.9653 196.724 29.424C196.169 29.8827 195.417 30.112 194.468 30.112C193.369 30.112 192.478 29.856 191.796 29.344C191.124 28.832 190.718 28.1173 190.58 27.2H192.356C192.409 27.68 192.622 28.0693 192.996 28.368C193.369 28.6667 193.86 28.816 194.468 28.816C194.905 28.816 195.246 28.704 195.492 28.48C195.748 28.2453 195.876 27.952 195.876 27.6C195.876 27.2907 195.78 27.0453 195.588 26.864C195.396 26.6827 195.156 26.544 194.868 26.448C194.58 26.3413 194.185 26.2347 193.684 26.128C193.044 25.9787 192.521 25.8293 192.116 25.68C191.721 25.5307 191.38 25.2907 191.092 24.96C190.814 24.6187 190.676 24.16 190.676 23.584C190.676 22.8373 190.953 22.2347 191.508 21.776C192.073 21.3067 192.852 21.072 193.844 21.072ZM204.329 21.04C205.353 21.04 206.174 21.3707 206.793 22.032C207.412 22.6933 207.721 23.6373 207.721 24.864V30H205.897V25.056C205.897 24.2667 205.694 23.6587 205.289 23.232C204.884 22.7947 204.329 22.576 203.625 22.576C202.9 22.576 202.318 22.8107 201.881 23.28C201.444 23.7387 201.225 24.416 201.225 25.312V30H199.401V18.16H201.225V23.12C201.46 22.4587 201.854 21.9467 202.409 21.584C202.964 21.2213 203.604 21.04 204.329 21.04ZM213.886 21.072C214.739 21.072 215.507 21.2533 216.19 21.616C216.873 21.9787 217.406 22.5013 217.79 23.184C218.174 23.8667 218.366 24.6667 218.366 25.584C218.366 26.512 218.174 27.3173 217.79 28C217.406 28.6827 216.873 29.2053 216.19 29.568C215.507 29.9307 214.739 30.112 213.886 30.112C213.033 30.112 212.265 29.9307 211.582 29.568C210.91 29.2053 210.377 28.6827 209.982 28C209.598 27.3067 209.406 26.5013 209.406 25.584C209.406 24.6667 209.598 23.8667 209.982 23.184C210.377 22.5013 210.91 21.9787 211.582 21.616C212.265 21.2533 213.033 21.072 213.886 21.072ZM213.886 22.656C213.417 22.656 212.985 22.7627 212.59 22.976C212.195 23.1893 211.875 23.52 211.63 23.968C211.395 24.4053 211.278 24.944 211.278 25.584C211.278 26.2347 211.395 26.7787 211.63 27.216C211.875 27.6533 212.195 27.9787 212.59 28.192C212.985 28.4053 213.417 28.512 213.886 28.512C214.355 28.512 214.787 28.4053 215.182 28.192C215.577 27.9787 215.891 27.6533 216.126 27.216C216.371 26.7787 216.494 26.2347 216.494 25.584C216.494 24.944 216.371 24.4053 216.126 23.968C215.891 23.52 215.577 23.1893 215.182 22.976C214.787 22.7627 214.355 22.656 213.886 22.656ZM225.176 21.072C225.944 21.072 226.626 21.2533 227.224 21.616C227.832 21.9787 228.306 22.5013 228.648 23.184C228.989 23.8667 229.16 24.6667 229.16 25.584C229.16 26.512 228.989 27.3173 228.648 28C228.306 28.6827 227.832 29.2053 227.224 29.568C226.626 29.9307 225.944 30.112 225.176 30.112C224.376 30.112 223.693 29.9147 223.128 29.52C222.562 29.1253 222.168 28.6027 221.944 27.952V34.192H220.12V21.184H221.944V23.232C222.168 22.5813 222.562 22.0587 223.128 21.664C223.693 21.2693 224.376 21.072 225.176 21.072ZM224.616 22.672C224.104 22.672 223.645 22.7947 223.24 23.04C222.834 23.2747 222.514 23.616 222.28 24.064C222.045 24.5013 221.928 25.008 221.928 25.584C221.928 26.1707 222.045 26.6827 222.28 27.12C222.514 27.5573 222.834 27.8987 223.24 28.144C223.645 28.3787 224.104 28.496 224.616 28.496C225.426 28.496 226.077 28.24 226.568 27.728C227.058 27.2053 227.304 26.4907 227.304 25.584C227.304 24.688 227.058 23.9787 226.568 23.456C226.077 22.9333 225.426 22.672 224.616 22.672ZM235.973 21.072C236.741 21.072 237.423 21.2533 238.021 21.616C238.629 21.9787 239.103 22.5013 239.445 23.184C239.786 23.8667 239.957 24.6667 239.957 25.584C239.957 26.512 239.786 27.3173 239.445 28C239.103 28.6827 238.629 29.2053 238.021 29.568C237.423 29.9307 236.741 30.112 235.973 30.112C235.173 30.112 234.49 29.9147 233.924 29.52C233.359 29.1253 232.965 28.6027 232.741 27.952V34.192H230.917V21.184H232.741V23.232C232.965 22.5813 233.359 22.0587 233.924 21.664C234.49 21.2693 235.173 21.072 235.973 21.072ZM235.413 22.672C234.901 22.672 234.442 22.7947 234.036 23.04C233.631 23.2747 233.311 23.616 233.077 24.064C232.842 24.5013 232.725 25.008 232.725 25.584C232.725 26.1707 232.842 26.6827 233.077 27.12C233.311 27.5573 233.631 27.8987 234.036 28.144C234.442 28.3787 234.901 28.496 235.413 28.496C236.223 28.496 236.874 28.24 237.365 27.728C237.855 27.2053 238.101 26.4907 238.101 25.584C238.101 24.688 237.855 23.9787 237.365 23.456C236.874 22.9333 236.223 22.672 235.413 22.672ZM241.457 18.624C241.457 18.3147 241.564 18.0587 241.777 17.856C241.991 17.6533 242.273 17.552 242.625 17.552C242.977 17.552 243.26 17.6533 243.473 17.856C243.697 18.0587 243.809 18.3147 243.809 18.624C243.809 18.9333 243.697 19.184 243.473 19.376C243.26 19.568 242.977 19.664 242.625 19.664C242.273 19.664 241.991 19.568 241.777 19.376C241.564 19.184 241.457 18.9333 241.457 18.624ZM243.537 21.184V30H241.713V21.184H243.537ZM250.673 21.04C251.697 21.04 252.518 21.3707 253.137 22.032C253.755 22.6933 254.065 23.6373 254.065 24.864V30H252.241V25.056C252.241 24.2667 252.038 23.6587 251.633 23.232C251.227 22.7947 250.673 22.576 249.969 22.576C249.243 22.576 248.662 22.8107 248.225 23.28C247.787 23.7387 247.569 24.416 247.569 25.312V30H245.745V21.184H247.569V23.12C247.803 22.4587 248.198 21.9467 248.753 21.584C249.307 21.2213 249.947 21.04 250.673 21.04ZM259.734 21.072C260.534 21.072 261.216 21.2693 261.782 21.664C262.347 22.0587 262.747 22.5813 262.982 23.232V21.184H264.806V30.096C264.806 30.9173 264.635 31.6427 264.294 32.272C263.963 32.912 263.483 33.4133 262.854 33.776C262.224 34.1387 261.478 34.32 260.614 34.32C259.376 34.32 258.374 34.0267 257.606 33.44C256.848 32.8533 256.374 32.0587 256.182 31.056H257.99C258.139 31.5787 258.427 31.984 258.854 32.272C259.28 32.5707 259.824 32.72 260.486 32.72C261.211 32.72 261.808 32.496 262.278 32.048C262.747 31.6 262.982 30.9493 262.982 30.096V27.952C262.747 28.6027 262.347 29.1253 261.782 29.52C261.216 29.9147 260.534 30.112 259.734 30.112C258.966 30.112 258.278 29.9307 257.67 29.568C257.072 29.2053 256.603 28.6827 256.262 28C255.92 27.3173 255.75 26.512 255.75 25.584C255.75 24.6667 255.92 23.8667 256.262 23.184C256.603 22.5013 257.072 21.9787 257.67 21.616C258.278 21.2533 258.966 21.072 259.734 21.072ZM260.294 22.672C259.483 22.672 258.832 22.9333 258.342 23.456C257.862 23.968 257.622 24.6773 257.622 25.584C257.622 26.4907 257.862 27.2053 258.342 27.728C258.832 28.24 259.483 28.496 260.294 28.496C260.806 28.496 261.264 28.3787 261.67 28.144C262.075 27.8987 262.395 27.5573 262.63 27.12C262.864 26.6827 262.982 26.1707 262.982 25.584C262.982 25.008 262.864 24.5013 262.63 24.064C262.395 23.616 262.075 23.2747 261.67 23.04C261.264 22.7947 260.806 22.672 260.294 22.672Z" fill="black"/>
<path d="M36 22H12C10.8954 22 10 22.8954 10 24V40C10 41.1046 10.8954 42 12 42H36C37.1046 42 38 41.1046 38 40V24C38 22.8954 37.1046 22 36 22Z" stroke="#007878" stroke-width="2" stroke-linecap="square"/>
<path d="M24 6C29.5229 6 34 10.4772 34 16V22H14V16C14 10.4772 18.4772 6 24 6Z" stroke="#007878" stroke-width="2" stroke-linecap="square"/>
<path d="M24 34C25.1046 34 26 33.1046 26 32C26 30.8954 25.1046 30 24 30C22.8954 30 22 30.8954 22 32C22 33.1046 22.8954 34 24 34Z" stroke="#007878" stroke-width="2" stroke-linecap="square"/>
</svg>
