<svg width="203" height="48" viewBox="0 0 203 48" fill="none" xmlns="http://www.w3.org/2000/svg">
<path d="M66.8 24.336C66.8 25.4773 66.5653 26.4747 66.096 27.328C65.6373 28.1707 64.96 28.8267 64.064 29.296C63.1787 29.7653 62.1173 30 60.88 30H57.104V18.704H60.88C62.1173 18.704 63.1787 18.9387 64.064 19.408C64.96 19.8667 65.6373 20.5173 66.096 21.36C66.5653 22.2027 66.8 23.1947 66.8 24.336ZM60.736 28.352C62.0907 28.352 63.1307 28 63.856 27.296C64.5813 26.592 64.944 25.6053 64.944 24.336C64.944 23.0667 64.5813 22.08 63.856 21.376C63.1307 20.672 62.0907 20.32 60.736 20.32H58.928V28.352H60.736ZM72.6673 21.072C73.5206 21.072 74.2886 21.2533 74.9713 21.616C75.6539 21.9787 76.1873 22.5013 76.5712 23.184C76.9553 23.8667 77.1473 24.6667 77.1473 25.584C77.1473 26.512 76.9553 27.3173 76.5712 28C76.1873 28.6827 75.6539 29.2053 74.9713 29.568C74.2886 29.9307 73.5206 30.112 72.6673 30.112C71.8139 30.112 71.0459 29.9307 70.3633 29.568C69.6913 29.2053 69.1579 28.6827 68.7633 28C68.3793 27.3067 68.1873 26.5013 68.1873 25.584C68.1873 24.6667 68.3793 23.8667 68.7633 23.184C69.1579 22.5013 69.6913 21.9787 70.3633 21.616C71.0459 21.2533 71.8139 21.072 72.6673 21.072ZM72.6673 22.656C72.1979 22.656 71.7659 22.7627 71.3713 22.976C70.9766 23.1893 70.6566 23.52 70.4113 23.968C70.1766 24.4053 70.0593 24.944 70.0593 25.584C70.0593 26.2347 70.1766 26.7787 70.4113 27.216C70.6566 27.6533 70.9766 27.9787 71.3713 28.192C71.7659 28.4053 72.1979 28.512 72.6673 28.512C73.1366 28.512 73.5686 28.4053 73.9633 28.192C74.3579 27.9787 74.6726 27.6533 74.9073 27.216C75.1526 26.7787 75.2753 26.2347 75.2753 25.584C75.2753 24.944 75.1526 24.4053 74.9073 23.968C74.6726 23.52 74.3579 23.1893 73.9633 22.976C73.5686 22.7627 73.1366 22.656 72.6673 22.656ZM87.5789 21.04C88.6029 21.04 89.4242 21.3707 90.0429 22.032C90.6615 22.6933 90.9709 23.6373 90.9709 24.864V30H89.1469V25.056C89.1469 24.2667 88.9442 23.6587 88.5389 23.232C88.1335 22.7947 87.5789 22.576 86.8749 22.576C86.1495 22.576 85.5682 22.8107 85.1309 23.28C84.6935 23.7387 84.4749 24.416 84.4749 25.312V30H82.6509V21.184H84.4749V23.12C84.7095 22.4587 85.1042 21.9467 85.6589 21.584C86.2135 21.2213 86.8535 21.04 87.5789 21.04ZM97.136 21.072C97.9893 21.072 98.7573 21.2533 99.44 21.616C100.123 21.9787 100.656 22.5013 101.04 23.184C101.424 23.8667 101.616 24.6667 101.616 25.584C101.616 26.512 101.424 27.3173 101.04 28C100.656 28.6827 100.123 29.2053 99.44 29.568C98.7573 29.9307 97.9893 30.112 97.136 30.112C96.2827 30.112 95.5147 29.9307 94.832 29.568C94.16 29.2053 93.6267 28.6827 93.232 28C92.848 27.3067 92.656 26.5013 92.656 25.584C92.656 24.6667 92.848 23.8667 93.232 23.184C93.6267 22.5013 94.16 21.9787 94.832 21.616C95.5147 21.2533 96.2827 21.072 97.136 21.072ZM97.136 22.656C96.6667 22.656 96.2347 22.7627 95.84 22.976C95.4453 23.1893 95.1253 23.52 94.88 23.968C94.6453 24.4053 94.528 24.944 94.528 25.584C94.528 26.2347 94.6453 26.7787 94.88 27.216C95.1253 27.6533 95.4453 27.9787 95.84 28.192C96.2347 28.4053 96.6667 28.512 97.136 28.512C97.6053 28.512 98.0373 28.4053 98.432 28.192C98.8267 27.9787 99.1413 27.6533 99.376 27.216C99.6213 26.7787 99.744 26.2347 99.744 25.584C99.744 24.944 99.6213 24.4053 99.376 23.968C99.1413 23.52 98.8267 23.1893 98.432 22.976C98.0373 22.7627 97.6053 22.656 97.136 22.656ZM107.802 28.416V30H106.682C105.743 30 105.028 29.776 104.538 29.328C104.058 28.8693 103.818 28.112 103.818 27.056V22.736H102.554V21.184H103.818V18.992H105.658V21.184H107.786V22.736H105.658V27.088C105.658 27.5893 105.748 27.936 105.93 28.128C106.122 28.32 106.452 28.416 106.922 28.416H107.802ZM117.18 21.072C118.322 21.072 119.266 21.376 120.012 21.984C120.759 22.5813 121.223 23.3973 121.404 24.432H119.468C119.362 23.8773 119.1 23.4453 118.684 23.136C118.279 22.816 117.767 22.656 117.148 22.656C116.444 22.656 115.858 22.9067 115.388 23.408C114.919 23.8987 114.684 24.624 114.684 25.584C114.684 26.544 114.919 27.2747 115.388 27.776C115.858 28.2773 116.444 28.528 117.148 28.528C117.767 28.528 118.279 28.368 118.684 28.048C119.1 27.728 119.362 27.2907 119.468 26.736H121.404C121.223 27.7707 120.759 28.592 120.012 29.2C119.266 29.808 118.322 30.112 117.18 30.112C116.327 30.112 115.57 29.9307 114.908 29.568C114.258 29.2053 113.746 28.6827 113.372 28C112.999 27.3173 112.812 26.512 112.812 25.584C112.812 24.6667 112.999 23.8667 113.372 23.184C113.746 22.5013 114.258 21.9787 114.908 21.616C115.57 21.2533 116.327 21.072 117.18 21.072ZM127.199 21.072C128.052 21.072 128.82 21.2533 129.503 21.616C130.185 21.9787 130.719 22.5013 131.102 23.184C131.487 23.8667 131.679 24.6667 131.679 25.584C131.679 26.512 131.487 27.3173 131.102 28C130.719 28.6827 130.185 29.2053 129.503 29.568C128.82 29.9307 128.052 30.112 127.199 30.112C126.345 30.112 125.577 29.9307 124.895 29.568C124.223 29.2053 123.689 28.6827 123.295 28C122.911 27.3067 122.719 26.5013 122.719 25.584C122.719 24.6667 122.911 23.8667 123.295 23.184C123.689 22.5013 124.223 21.9787 124.895 21.616C125.577 21.2533 126.345 21.072 127.199 21.072ZM127.199 22.656C126.729 22.656 126.297 22.7627 125.903 22.976C125.508 23.1893 125.188 23.52 124.943 23.968C124.708 24.4053 124.591 24.944 124.591 25.584C124.591 26.2347 124.708 26.7787 124.943 27.216C125.188 27.6533 125.508 27.9787 125.903 28.192C126.297 28.4053 126.729 28.512 127.199 28.512C127.668 28.512 128.1 28.4053 128.495 28.192C128.889 27.9787 129.204 27.6533 129.439 27.216C129.684 26.7787 129.807 26.2347 129.807 25.584C129.807 24.944 129.684 24.4053 129.439 23.968C129.204 23.52 128.889 23.1893 128.495 22.976C128.1 22.7627 127.668 22.656 127.199 22.656ZM144.456 21.04C145.501 21.04 146.333 21.3707 146.952 22.032C147.581 22.6933 147.896 23.6373 147.896 24.864V30H146.072V25.056C146.072 24.288 145.88 23.696 145.496 23.28C145.112 22.8533 144.584 22.64 143.912 22.64C143.197 22.64 142.627 22.8693 142.2 23.328C141.784 23.776 141.576 24.4373 141.576 25.312V30H139.752V25.056C139.752 24.288 139.56 23.696 139.176 23.28C138.792 22.8533 138.264 22.64 137.592 22.64C136.877 22.64 136.307 22.8693 135.88 23.328C135.464 23.776 135.256 24.4373 135.256 25.312V30H133.432V21.184H135.256V23.024C135.48 22.384 135.853 21.8933 136.376 21.552C136.899 21.2107 137.512 21.04 138.216 21.04C138.952 21.04 139.587 21.2213 140.12 21.584C140.664 21.9467 141.059 22.4693 141.304 23.152C141.56 22.4907 141.971 21.9733 142.536 21.6C143.101 21.2267 143.741 21.04 144.456 21.04ZM158.218 25.168C158.218 25.4667 158.197 25.728 158.154 25.952H151.37C151.402 26.8587 151.653 27.5307 152.122 27.968C152.591 28.4053 153.173 28.624 153.866 28.624C154.474 28.624 154.986 28.4693 155.402 28.16C155.829 27.8507 156.09 27.44 156.186 26.928H158.138C158.021 27.5467 157.775 28.096 157.402 28.576C157.029 29.056 156.543 29.4347 155.946 29.712C155.349 29.9787 154.682 30.112 153.946 30.112C153.093 30.112 152.335 29.9307 151.674 29.568C151.023 29.2053 150.511 28.6827 150.138 28C149.765 27.3173 149.578 26.512 149.578 25.584C149.578 24.6667 149.765 23.8667 150.138 23.184C150.511 22.5013 151.023 21.9787 151.674 21.616C152.335 21.2533 153.093 21.072 153.946 21.072C154.81 21.072 155.562 21.2533 156.202 21.616C156.853 21.968 157.349 22.4587 157.69 23.088C158.042 23.7067 158.218 24.4 158.218 25.168ZM156.378 25.12C156.399 24.544 156.298 24.064 156.074 23.68C155.861 23.2853 155.562 22.9973 155.178 22.816C154.805 22.624 154.394 22.528 153.946 22.528C153.231 22.528 152.634 22.7467 152.154 23.184C151.674 23.6213 151.413 24.2667 151.37 25.12H156.378ZM168.785 21.072C169.553 21.072 170.236 21.2533 170.833 21.616C171.441 21.9787 171.916 22.5013 172.257 23.184C172.598 23.8667 172.769 24.6667 172.769 25.584C172.769 26.512 172.598 27.3173 172.257 28C171.916 28.6827 171.441 29.2053 170.833 29.568C170.236 29.9307 169.553 30.112 168.785 30.112C167.985 30.112 167.302 29.9147 166.737 29.52C166.172 29.1253 165.777 28.6027 165.553 27.952V30H163.729V18.16H165.553V23.232C165.777 22.5813 166.172 22.0587 166.737 21.664C167.302 21.2693 167.985 21.072 168.785 21.072ZM168.225 22.672C167.713 22.672 167.254 22.7947 166.849 23.04C166.444 23.2747 166.124 23.616 165.889 24.064C165.654 24.5013 165.537 25.008 165.537 25.584C165.537 26.1707 165.654 26.6827 165.889 27.12C166.124 27.5573 166.444 27.8987 166.849 28.144C167.254 28.3787 167.713 28.496 168.225 28.496C169.036 28.496 169.686 28.24 170.177 27.728C170.668 27.2053 170.913 26.4907 170.913 25.584C170.913 24.688 170.668 23.9787 170.177 23.456C169.686 22.9333 169.036 22.672 168.225 22.672ZM178.062 21.072C178.862 21.072 179.545 21.2693 180.11 21.664C180.675 22.0587 181.075 22.5813 181.31 23.232V21.184H183.134V30H181.31V27.952C181.075 28.6027 180.675 29.1253 180.11 29.52C179.545 29.9147 178.862 30.112 178.062 30.112C177.294 30.112 176.606 29.9307 175.998 29.568C175.401 29.2053 174.931 28.6827 174.59 28C174.249 27.3173 174.078 26.512 174.078 25.584C174.078 24.6667 174.249 23.8667 174.59 23.184C174.931 22.5013 175.401 21.9787 175.998 21.616C176.606 21.2533 177.294 21.072 178.062 21.072ZM178.622 22.672C177.811 22.672 177.161 22.9333 176.67 23.456C176.19 23.968 175.95 24.6773 175.95 25.584C175.95 26.4907 176.19 27.2053 176.67 27.728C177.161 28.24 177.811 28.496 178.622 28.496C179.134 28.496 179.593 28.3787 179.998 28.144C180.403 27.8987 180.723 27.5573 180.958 27.12C181.193 26.6827 181.31 26.1707 181.31 25.584C181.31 25.008 181.193 24.5013 180.958 24.064C180.723 23.616 180.403 23.2747 179.998 23.04C179.593 22.7947 179.134 22.672 178.622 22.672ZM189.243 21.072C190.384 21.072 191.328 21.376 192.075 21.984C192.821 22.5813 193.285 23.3973 193.467 24.432H191.531C191.424 23.8773 191.163 23.4453 190.747 23.136C190.341 22.816 189.829 22.656 189.211 22.656C188.507 22.656 187.92 22.9067 187.451 23.408C186.981 23.8987 186.747 24.624 186.747 25.584C186.747 26.544 186.981 27.2747 187.451 27.776C187.92 28.2773 188.507 28.528 189.211 28.528C189.829 28.528 190.341 28.368 190.747 28.048C191.163 27.728 191.424 27.2907 191.531 26.736H193.467C193.285 27.7707 192.821 28.592 192.075 29.2C191.328 29.808 190.384 30.112 189.243 30.112C188.389 30.112 187.632 29.9307 186.971 29.568C186.32 29.2053 185.808 28.6827 185.435 28C185.061 27.3173 184.875 26.512 184.875 25.584C184.875 24.6667 185.061 23.8667 185.435 23.184C185.808 22.5013 186.32 21.9787 186.971 21.616C187.632 21.2533 188.389 21.072 189.243 21.072ZM200.221 30L197.053 26.08V30H195.229V18.16H197.053V24.944L200.189 21.184H202.381L198.541 25.568L202.477 30H200.221Z" fill="black"/>
<path d="M22 30L28 24L22 18" stroke="#007878" stroke-width="2" stroke-linecap="round"/>
<path d="M9 24H26" stroke="#007878" stroke-width="2" stroke-linecap="round"/>
<path d="M34 8C35.1046 8 36 8.89543 36 10V38C36 39.1046 35.1046 40 34 40H16C14.8954 40 14 39.1046 14 38V10C14 8.89543 14.8954 8 16 8H34Z" stroke="#007878" stroke-width="2" stroke-linecap="square"/>
</svg>
