<svg width="295" height="48" viewBox="0 0 295 48" fill="none" xmlns="http://www.w3.org/2000/svg">
<path d="M58.928 25.616V30H57.104V18.704H60.944C62.2453 18.704 63.2213 19.0133 63.872 19.632C64.5333 20.2507 64.864 21.0987 64.864 22.176C64.864 23.2427 64.528 24.0853 63.856 24.704C63.184 25.312 62.2133 25.616 60.944 25.616H58.928ZM60.752 24.128C62.256 24.128 63.008 23.4773 63.008 22.176C63.008 21.536 62.8267 21.0507 62.464 20.72C62.112 20.3787 61.5413 20.208 60.752 20.208H58.928V24.128H60.752ZM69.9994 21.072C70.7994 21.072 71.482 21.2693 72.0474 21.664C72.6127 22.0587 73.0127 22.5813 73.2474 23.232V21.184H75.0714V30H73.2474V27.952C73.0127 28.6027 72.6127 29.1253 72.0474 29.52C71.482 29.9147 70.7994 30.112 69.9994 30.112C69.2314 30.112 68.5434 29.9307 67.9354 29.568C67.338 29.2053 66.8687 28.6827 66.5274 28C66.186 27.3173 66.0154 26.512 66.0154 25.584C66.0154 24.6667 66.186 23.8667 66.5274 23.184C66.8687 22.5013 67.338 21.9787 67.9354 21.616C68.5434 21.2533 69.2314 21.072 69.9994 21.072ZM70.5594 22.672C69.7487 22.672 69.098 22.9333 68.6074 23.456C68.1274 23.968 67.8874 24.6773 67.8874 25.584C67.8874 26.4907 68.1274 27.2053 68.6074 27.728C69.098 28.24 69.7487 28.496 70.5594 28.496C71.0714 28.496 71.53 28.3787 71.9354 28.144C72.3407 27.8987 72.6607 27.5573 72.8954 27.12C73.13 26.6827 73.2474 26.1707 73.2474 25.584C73.2474 25.008 73.13 24.5013 72.8954 24.064C72.6607 23.616 72.3407 23.2747 71.9354 23.04C71.53 22.7947 71.0714 22.672 70.5594 22.672ZM78.3003 21.184L80.9403 27.664L83.3883 21.184H85.4203L80.0923 34.192H78.0603L79.9643 29.792L76.2523 21.184H78.3003ZM97.6436 21.04C98.689 21.04 99.521 21.3707 100.14 22.032C100.769 22.6933 101.084 23.6373 101.084 24.864V30H99.2596V25.056C99.2596 24.288 99.0676 23.696 98.6836 23.28C98.2996 22.8533 97.7716 22.64 97.0996 22.64C96.385 22.64 95.8143 22.8693 95.3876 23.328C94.9716 23.776 94.7636 24.4373 94.7636 25.312V30H92.9396V25.056C92.9396 24.288 92.7476 23.696 92.3636 23.28C91.9796 22.8533 91.4516 22.64 90.7796 22.64C90.065 22.64 89.4943 22.8693 89.0676 23.328C88.6516 23.776 88.4436 24.4373 88.4436 25.312V30H86.6196V21.184H88.4436V23.024C88.6676 22.384 89.041 21.8933 89.5636 21.552C90.0863 21.2107 90.6996 21.04 91.4036 21.04C92.1396 21.04 92.7743 21.2213 93.3076 21.584C93.8516 21.9467 94.2463 22.4693 94.4916 23.152C94.7476 22.4907 95.1583 21.9733 95.7236 21.6C96.289 21.2267 96.929 21.04 97.6436 21.04ZM111.405 25.168C111.405 25.4667 111.384 25.728 111.341 25.952H104.557C104.589 26.8587 104.84 27.5307 105.309 27.968C105.779 28.4053 106.36 28.624 107.053 28.624C107.661 28.624 108.173 28.4693 108.589 28.16C109.016 27.8507 109.277 27.44 109.373 26.928H111.325C111.208 27.5467 110.963 28.096 110.589 28.576C110.216 29.056 109.731 29.4347 109.133 29.712C108.536 29.9787 107.869 30.112 107.133 30.112C106.28 30.112 105.523 29.9307 104.861 29.568C104.211 29.2053 103.699 28.6827 103.325 28C102.952 27.3173 102.765 26.512 102.765 25.584C102.765 24.6667 102.952 23.8667 103.325 23.184C103.699 22.5013 104.211 21.9787 104.861 21.616C105.523 21.2533 106.28 21.072 107.133 21.072C107.997 21.072 108.749 21.2533 109.389 21.616C110.04 21.968 110.536 22.4587 110.877 23.088C111.229 23.7067 111.405 24.4 111.405 25.168ZM109.565 25.12C109.587 24.544 109.485 24.064 109.261 23.68C109.048 23.2853 108.749 22.9973 108.365 22.816C107.992 22.624 107.581 22.528 107.133 22.528C106.419 22.528 105.821 22.7467 105.341 23.184C104.861 23.6213 104.6 24.2667 104.557 25.12H109.565ZM118.095 21.04C119.119 21.04 119.94 21.3707 120.559 22.032C121.177 22.6933 121.487 23.6373 121.487 24.864V30H119.663V25.056C119.663 24.2667 119.46 23.6587 119.055 23.232C118.649 22.7947 118.095 22.576 117.391 22.576C116.665 22.576 116.084 22.8107 115.647 23.28C115.209 23.7387 114.991 24.416 114.991 25.312V30H113.167V21.184H114.991V23.12C115.225 22.4587 115.62 21.9467 116.174 21.584C116.729 21.2213 117.369 21.04 118.095 21.04ZM128.052 28.416V30H126.932C125.993 30 125.278 29.776 124.788 29.328C124.308 28.8693 124.068 28.112 124.068 27.056V22.736H122.804V21.184H124.068V18.992H125.908V21.184H128.036V22.736H125.908V27.088C125.908 27.5893 125.998 27.936 126.18 28.128C126.372 28.32 126.702 28.416 127.172 28.416H128.052ZM137.046 21.072C137.846 21.072 138.529 21.2693 139.094 21.664C139.66 22.0587 140.06 22.5813 140.294 23.232V21.184H142.118V30H140.294V27.952C140.06 28.6027 139.66 29.1253 139.094 29.52C138.529 29.9147 137.846 30.112 137.046 30.112C136.278 30.112 135.59 29.9307 134.982 29.568C134.385 29.2053 133.916 28.6827 133.574 28C133.233 27.3173 133.062 26.512 133.062 25.584C133.062 24.6667 133.233 23.8667 133.574 23.184C133.916 22.5013 134.385 21.9787 134.982 21.616C135.59 21.2533 136.278 21.072 137.046 21.072ZM137.606 22.672C136.796 22.672 136.145 22.9333 135.654 23.456C135.174 23.968 134.934 24.6773 134.934 25.584C134.934 26.4907 135.174 27.2053 135.654 27.728C136.145 28.24 136.796 28.496 137.606 28.496C138.118 28.496 138.577 28.3787 138.982 28.144C139.388 27.8987 139.708 27.5573 139.942 27.12C140.177 26.6827 140.294 26.1707 140.294 25.584C140.294 25.008 140.177 24.5013 139.942 24.064C139.708 23.616 139.388 23.2747 138.982 23.04C138.577 22.7947 138.118 22.672 137.606 22.672ZM148.739 28.416V30H147.619C146.68 30 145.966 29.776 145.475 29.328C144.995 28.8693 144.755 28.112 144.755 27.056V22.736H143.491V21.184H144.755V18.992H146.595V21.184H148.723V22.736H146.595V27.088C146.595 27.5893 146.686 27.936 146.867 28.128C147.059 28.32 147.39 28.416 147.859 28.416H148.739ZM158.63 28.416V30H157.51C156.571 30 155.856 29.776 155.366 29.328C154.886 28.8693 154.646 28.112 154.646 27.056V22.736H153.382V21.184H154.646V18.992H156.486V21.184H158.614V22.736H156.486V27.088C156.486 27.5893 156.576 27.936 156.758 28.128C156.95 28.32 157.28 28.416 157.75 28.416H158.63ZM165.266 21.04C166.29 21.04 167.112 21.3707 167.73 22.032C168.349 22.6933 168.658 23.6373 168.658 24.864V30H166.834V25.056C166.834 24.2667 166.632 23.6587 166.226 23.232C165.821 22.7947 165.266 22.576 164.562 22.576C163.837 22.576 163.256 22.8107 162.818 23.28C162.381 23.7387 162.162 24.416 162.162 25.312V30H160.338V18.16H162.162V23.12C162.397 22.4587 162.792 21.9467 163.346 21.584C163.901 21.2213 164.541 21.04 165.266 21.04ZM178.984 25.168C178.984 25.4667 178.962 25.728 178.92 25.952H172.136C172.168 26.8587 172.418 27.5307 172.888 27.968C173.357 28.4053 173.938 28.624 174.632 28.624C175.24 28.624 175.752 28.4693 176.168 28.16C176.594 27.8507 176.856 27.44 176.952 26.928H178.904C178.786 27.5467 178.541 28.096 178.168 28.576C177.794 29.056 177.309 29.4347 176.712 29.712C176.114 29.9787 175.448 30.112 174.712 30.112C173.858 30.112 173.101 29.9307 172.44 29.568C171.789 29.2053 171.277 28.6827 170.904 28C170.53 27.3173 170.344 26.512 170.344 25.584C170.344 24.6667 170.53 23.8667 170.904 23.184C171.277 22.5013 171.789 21.9787 172.44 21.616C173.101 21.2533 173.858 21.072 174.712 21.072C175.576 21.072 176.328 21.2533 176.968 21.616C177.618 21.968 178.114 22.4587 178.456 23.088C178.808 23.7067 178.984 24.4 178.984 25.168ZM177.144 25.12C177.165 24.544 177.064 24.064 176.84 23.68C176.626 23.2853 176.328 22.9973 175.944 22.816C175.57 22.624 175.16 22.528 174.712 22.528C173.997 22.528 173.4 22.7467 172.92 23.184C172.44 23.6213 172.178 24.2667 172.136 25.12H177.144ZM188.031 21.072C188.831 21.072 189.513 21.2693 190.079 21.664C190.644 22.0587 191.039 22.5813 191.263 23.232V18.16H193.103V30H191.263V27.952C191.039 28.6027 190.644 29.1253 190.079 29.52C189.513 29.9147 188.831 30.112 188.031 30.112C187.263 30.112 186.575 29.9307 185.967 29.568C185.369 29.2053 184.9 28.6827 184.559 28C184.217 27.3173 184.047 26.512 184.047 25.584C184.047 24.6667 184.217 23.8667 184.559 23.184C184.9 22.5013 185.369 21.9787 185.967 21.616C186.575 21.2533 187.263 21.072 188.031 21.072ZM188.591 22.672C187.78 22.672 187.129 22.9333 186.639 23.456C186.159 23.968 185.919 24.6773 185.919 25.584C185.919 26.4907 186.159 27.2053 186.639 27.728C187.129 28.24 187.78 28.496 188.591 28.496C189.103 28.496 189.561 28.3787 189.967 28.144C190.372 27.8987 190.692 27.5573 190.927 27.12C191.161 26.6827 191.279 26.1707 191.279 25.584C191.279 25.008 191.161 24.5013 190.927 24.064C190.692 23.616 190.372 23.2747 189.967 23.04C189.561 22.7947 189.103 22.672 188.591 22.672ZM199.324 21.072C200.177 21.072 200.945 21.2533 201.628 21.616C202.31 21.9787 202.844 22.5013 203.227 23.184C203.612 23.8667 203.804 24.6667 203.804 25.584C203.804 26.512 203.612 27.3173 203.227 28C202.844 28.6827 202.31 29.2053 201.628 29.568C200.945 29.9307 200.177 30.112 199.324 30.112C198.47 30.112 197.702 29.9307 197.02 29.568C196.348 29.2053 195.814 28.6827 195.42 28C195.036 27.3067 194.844 26.5013 194.844 25.584C194.844 24.6667 195.036 23.8667 195.42 23.184C195.814 22.5013 196.348 21.9787 197.02 21.616C197.702 21.2533 198.47 21.072 199.324 21.072ZM199.324 22.656C198.854 22.656 198.422 22.7627 198.028 22.976C197.633 23.1893 197.313 23.52 197.068 23.968C196.833 24.4053 196.716 24.944 196.716 25.584C196.716 26.2347 196.833 26.7787 197.068 27.216C197.313 27.6533 197.633 27.9787 198.028 28.192C198.422 28.4053 198.854 28.512 199.324 28.512C199.793 28.512 200.225 28.4053 200.62 28.192C201.014 27.9787 201.329 27.6533 201.564 27.216C201.809 26.7787 201.932 26.2347 201.932 25.584C201.932 24.944 201.809 24.4053 201.564 23.968C201.329 23.52 201.014 23.1893 200.62 22.976C200.225 22.7627 199.793 22.656 199.324 22.656ZM209.589 21.072C210.442 21.072 211.21 21.2533 211.893 21.616C212.576 21.9787 213.109 22.5013 213.493 23.184C213.877 23.8667 214.069 24.6667 214.069 25.584C214.069 26.512 213.877 27.3173 213.493 28C213.109 28.6827 212.576 29.2053 211.893 29.568C211.21 29.9307 210.442 30.112 209.589 30.112C208.736 30.112 207.968 29.9307 207.285 29.568C206.613 29.2053 206.08 28.6827 205.685 28C205.301 27.3067 205.109 26.5013 205.109 25.584C205.109 24.6667 205.301 23.8667 205.685 23.184C206.08 22.5013 206.613 21.9787 207.285 21.616C207.968 21.2533 208.736 21.072 209.589 21.072ZM209.589 22.656C209.12 22.656 208.688 22.7627 208.293 22.976C207.898 23.1893 207.578 23.52 207.333 23.968C207.098 24.4053 206.981 24.944 206.981 25.584C206.981 26.2347 207.098 26.7787 207.333 27.216C207.578 27.6533 207.898 27.9787 208.293 28.192C208.688 28.4053 209.12 28.512 209.589 28.512C210.058 28.512 210.49 28.4053 210.885 28.192C211.28 27.9787 211.594 27.6533 211.829 27.216C212.074 26.7787 212.197 26.2347 212.197 25.584C212.197 24.944 212.074 24.4053 211.829 23.968C211.594 23.52 211.28 23.1893 210.885 22.976C210.49 22.7627 210.058 22.656 209.589 22.656ZM217.647 22.912C217.945 22.336 218.372 21.8827 218.927 21.552C219.481 21.2107 220.121 21.04 220.847 21.04V23.024H220.303C219.503 23.024 218.857 23.2213 218.367 23.616C217.887 24 217.647 24.64 217.647 25.536V30H215.823V21.184H217.647V22.912ZM229.995 21.072C230.849 21.072 231.617 21.2533 232.299 21.616C232.982 21.9787 233.515 22.5013 233.899 23.184C234.283 23.8667 234.475 24.6667 234.475 25.584C234.475 26.512 234.283 27.3173 233.899 28C233.515 28.6827 232.982 29.2053 232.299 29.568C231.617 29.9307 230.849 30.112 229.995 30.112C229.142 30.112 228.374 29.9307 227.691 29.568C227.019 29.2053 226.486 28.6827 226.091 28C225.707 27.3067 225.515 26.5013 225.515 25.584C225.515 24.6667 225.707 23.8667 226.091 23.184C226.486 22.5013 227.019 21.9787 227.691 21.616C228.374 21.2533 229.142 21.072 229.995 21.072ZM229.995 22.656C229.526 22.656 229.094 22.7627 228.699 22.976C228.305 23.1893 227.985 23.52 227.739 23.968C227.505 24.4053 227.387 24.944 227.387 25.584C227.387 26.2347 227.505 26.7787 227.739 27.216C227.985 27.6533 228.305 27.9787 228.699 28.192C229.094 28.4053 229.526 28.512 229.995 28.512C230.465 28.512 230.897 28.4053 231.291 28.192C231.686 27.9787 232.001 27.6533 232.235 27.216C232.481 26.7787 232.603 26.2347 232.603 25.584C232.603 24.944 232.481 24.4053 232.235 23.968C232.001 23.52 231.686 23.1893 231.291 22.976C230.897 22.7627 230.465 22.656 229.995 22.656ZM238.053 22.912C238.352 22.336 238.778 21.8827 239.333 21.552C239.888 21.2107 240.528 21.04 241.253 21.04V23.024H240.709C239.909 23.024 239.264 23.2213 238.773 23.616C238.293 24 238.053 24.64 238.053 25.536V30H236.229V21.184H238.053V22.912ZM250.402 21.072C251.255 21.072 252.023 21.2533 252.706 21.616C253.388 21.9787 253.922 22.5013 254.306 23.184C254.69 23.8667 254.882 24.6667 254.882 25.584C254.882 26.512 254.69 27.3173 254.306 28C253.922 28.6827 253.388 29.2053 252.706 29.568C252.023 29.9307 251.255 30.112 250.402 30.112C249.548 30.112 248.78 29.9307 248.098 29.568C247.426 29.2053 246.892 28.6827 246.498 28C246.114 27.3067 245.922 26.5013 245.922 25.584C245.922 24.6667 246.114 23.8667 246.498 23.184C246.892 22.5013 247.426 21.9787 248.098 21.616C248.78 21.2533 249.548 21.072 250.402 21.072ZM250.402 22.656C249.932 22.656 249.5 22.7627 249.106 22.976C248.711 23.1893 248.391 23.52 248.146 23.968C247.911 24.4053 247.794 24.944 247.794 25.584C247.794 26.2347 247.911 26.7787 248.146 27.216C248.391 27.6533 248.711 27.9787 249.106 28.192C249.5 28.4053 249.932 28.512 250.402 28.512C250.871 28.512 251.303 28.4053 251.698 28.192C252.092 27.9787 252.407 27.6533 252.642 27.216C252.887 26.7787 253.01 26.2347 253.01 25.584C253.01 24.944 252.887 24.4053 252.642 23.968C252.407 23.52 252.092 23.1893 251.698 22.976C251.303 22.7627 250.871 22.656 250.402 22.656ZM261.563 21.04C262.587 21.04 263.409 21.3707 264.027 22.032C264.646 22.6933 264.955 23.6373 264.955 24.864V30H263.131V25.056C263.131 24.2667 262.929 23.6587 262.523 23.232C262.118 22.7947 261.563 22.576 260.859 22.576C260.134 22.576 259.553 22.8107 259.115 23.28C258.678 23.7387 258.459 24.416 258.459 25.312V30H256.635V21.184H258.459V23.12C258.694 22.4587 259.089 21.9467 259.643 21.584C260.198 21.2213 260.838 21.04 261.563 21.04ZM268.912 18.16V30H267.088V18.16H268.912ZM270.864 18.624C270.864 18.3147 270.97 18.0587 271.184 17.856C271.397 17.6533 271.68 17.552 272.032 17.552C272.384 17.552 272.666 17.6533 272.88 17.856C273.104 18.0587 273.216 18.3147 273.216 18.624C273.216 18.9333 273.104 19.184 272.88 19.376C272.666 19.568 272.384 19.664 272.032 19.664C271.68 19.664 271.397 19.568 271.184 19.376C270.97 19.184 270.864 18.9333 270.864 18.624ZM272.944 21.184V30H271.12V21.184H272.944ZM280.079 21.04C281.103 21.04 281.924 21.3707 282.543 22.032C283.162 22.6933 283.471 23.6373 283.471 24.864V30H281.647V25.056C281.647 24.2667 281.444 23.6587 281.039 23.232C280.634 22.7947 280.079 22.576 279.375 22.576C278.65 22.576 278.068 22.8107 277.631 23.28C277.194 23.7387 276.975 24.416 276.975 25.312V30H275.151V21.184H276.975V23.12C277.21 22.4587 277.604 21.9467 278.159 21.584C278.714 21.2213 279.354 21.04 280.079 21.04ZM293.796 25.168C293.796 25.4667 293.775 25.728 293.732 25.952H286.948C286.98 26.8587 287.231 27.5307 287.7 27.968C288.169 28.4053 288.751 28.624 289.444 28.624C290.052 28.624 290.564 28.4693 290.98 28.16C291.407 27.8507 291.668 27.44 291.764 26.928H293.716C293.599 27.5467 293.353 28.096 292.98 28.576C292.607 29.056 292.121 29.4347 291.524 29.712C290.927 29.9787 290.26 30.112 289.524 30.112C288.671 30.112 287.913 29.9307 287.252 29.568C286.601 29.2053 286.089 28.6827 285.716 28C285.343 27.3173 285.156 26.512 285.156 25.584C285.156 24.6667 285.343 23.8667 285.716 23.184C286.089 22.5013 286.601 21.9787 287.252 21.616C287.913 21.2533 288.671 21.072 289.524 21.072C290.388 21.072 291.14 21.2533 291.78 21.616C292.431 21.968 292.927 22.4587 293.268 23.088C293.62 23.7067 293.796 24.4 293.796 25.168ZM291.956 25.12C291.977 24.544 291.876 24.064 291.652 23.68C291.439 23.2853 291.14 22.9973 290.756 22.816C290.383 22.624 289.972 22.528 289.524 22.528C288.809 22.528 288.212 22.7467 287.732 23.184C287.252 23.6213 286.991 24.2667 286.948 25.12H291.956Z" fill="black"/>
<g clip-path="url(#clip0_1_1301)">
<path d="M40 10H8C5.79086 10 4 11.7909 4 14V34C4 36.2091 5.79086 38 8 38H40C42.2091 38 44 36.2091 44 34V14C44 11.7909 42.2091 10 40 10Z" stroke="#007878" stroke-width="2" stroke-linecap="square"/>
<path d="M4 28H44" stroke="#007878" stroke-width="2" stroke-linecap="square"/>
</g>
<defs>
<clipPath id="clip0_1_1301">
<rect width="48" height="48" fill="white"/>
</clipPath>
</defs>
</svg>
