<svg width="222" height="48" viewBox="0 0 222 48" fill="none" xmlns="http://www.w3.org/2000/svg">
<path d="M62.272 18.608C63.616 18.608 64.736 18.9387 65.632 19.6C66.528 20.2613 67.12 21.1627 67.408 22.304H65.488C65.2427 21.696 64.8373 21.2107 64.272 20.848C63.7173 20.4853 63.056 20.304 62.288 20.304C61.584 20.304 60.9493 20.4693 60.384 20.8C59.8293 21.1307 59.392 21.6 59.072 22.208C58.7627 22.816 58.608 23.5307 58.608 24.352C58.608 25.216 58.768 25.9573 59.088 26.576C59.408 27.1947 59.856 27.6693 60.432 28C61.0187 28.32 61.696 28.48 62.464 28.48C63.4027 28.48 64.208 28.192 64.88 27.616C65.552 27.0293 65.9573 26.2293 66.096 25.216H61.952V23.872H67.632V25.616C67.504 26.448 67.2053 27.2053 66.736 27.888C66.2773 28.56 65.664 29.0987 64.896 29.504C64.1387 29.9093 63.2693 30.112 62.288 30.112C61.1893 30.112 60.2187 29.8667 59.376 29.376C58.5333 28.8853 57.8827 28.208 57.424 27.344C56.9653 26.4693 56.736 25.472 56.736 24.352C56.736 23.232 56.9653 22.24 57.424 21.376C57.8827 20.5013 58.528 19.824 59.36 19.344C60.2027 18.8533 61.1733 18.608 62.272 18.608ZM77.607 21.184V30H75.767V28.08C75.543 28.7307 75.1537 29.2373 74.599 29.6C74.0443 29.952 73.399 30.128 72.663 30.128C71.639 30.128 70.8177 29.7973 70.199 29.136C69.5803 28.4747 69.271 27.5307 69.271 26.304V21.184H71.095V26.112C71.095 26.912 71.2977 27.5307 71.703 27.968C72.1083 28.3947 72.663 28.608 73.367 28.608C74.0923 28.608 74.6737 28.3733 75.111 27.904C75.5483 27.4347 75.767 26.752 75.767 25.856V21.184H77.607ZM83.3275 21.072C84.1275 21.072 84.8102 21.2693 85.3755 21.664C85.9408 22.0587 86.3408 22.5813 86.5755 23.232V21.184H88.3995V30H86.5755V27.952C86.3408 28.6027 85.9408 29.1253 85.3755 29.52C84.8102 29.9147 84.1275 30.112 83.3275 30.112C82.5595 30.112 81.8715 29.9307 81.2635 29.568C80.6662 29.2053 80.1968 28.6827 79.8555 28C79.5142 27.3173 79.3435 26.512 79.3435 25.584C79.3435 24.6667 79.5142 23.8667 79.8555 23.184C80.1968 22.5013 80.6662 21.9787 81.2635 21.616C81.8715 21.2533 82.5595 21.072 83.3275 21.072ZM83.8875 22.672C83.0768 22.672 82.4262 22.9333 81.9355 23.456C81.4555 23.968 81.2155 24.6773 81.2155 25.584C81.2155 26.4907 81.4555 27.2053 81.9355 27.728C82.4262 28.24 83.0768 28.496 83.8875 28.496C84.3995 28.496 84.8582 28.3787 85.2635 28.144C85.6688 27.8987 85.9888 27.5573 86.2235 27.12C86.4582 26.6827 86.5755 26.1707 86.5755 25.584C86.5755 25.008 86.4582 24.5013 86.2235 24.064C85.9888 23.616 85.6688 23.2747 85.2635 23.04C84.8582 22.7947 84.3995 22.672 83.8875 22.672ZM92.4124 22.912C92.711 22.336 93.1377 21.8827 93.6924 21.552C94.247 21.2107 94.887 21.04 95.6124 21.04V23.024H95.0684C94.2684 23.024 93.623 23.2213 93.1324 23.616C92.6524 24 92.4124 24.64 92.4124 25.536V30H90.5884V21.184H92.4124V22.912ZM100.515 21.072C101.315 21.072 101.998 21.2693 102.563 21.664C103.128 22.0587 103.528 22.5813 103.763 23.232V21.184H105.587V30H103.763V27.952C103.528 28.6027 103.128 29.1253 102.563 29.52C101.998 29.9147 101.315 30.112 100.515 30.112C99.747 30.112 99.059 29.9307 98.451 29.568C97.8537 29.2053 97.3843 28.6827 97.043 28C96.7017 27.3173 96.531 26.512 96.531 25.584C96.531 24.6667 96.7017 23.8667 97.043 23.184C97.3843 22.5013 97.8537 21.9787 98.451 21.616C99.059 21.2533 99.747 21.072 100.515 21.072ZM101.075 22.672C100.264 22.672 99.6137 22.9333 99.123 23.456C98.643 23.968 98.403 24.6773 98.403 25.584C98.403 26.4907 98.643 27.2053 99.123 27.728C99.6137 28.24 100.264 28.496 101.075 28.496C101.587 28.496 102.046 28.3787 102.451 28.144C102.856 27.8987 103.176 27.5573 103.411 27.12C103.646 26.6827 103.763 26.1707 103.763 25.584C103.763 25.008 103.646 24.5013 103.411 24.064C103.176 23.616 102.856 23.2747 102.451 23.04C102.046 22.7947 101.587 22.672 101.075 22.672ZM112.704 21.04C113.728 21.04 114.549 21.3707 115.168 22.032C115.787 22.6933 116.096 23.6373 116.096 24.864V30H114.272V25.056C114.272 24.2667 114.069 23.6587 113.664 23.232C113.259 22.7947 112.704 22.576 112 22.576C111.275 22.576 110.693 22.8107 110.256 23.28C109.819 23.7387 109.6 24.416 109.6 25.312V30H107.776V21.184H109.6V23.12C109.835 22.4587 110.229 21.9467 110.784 21.584C111.339 21.2213 111.979 21.04 112.704 21.04ZM122.661 28.416V30H121.541C120.602 30 119.888 29.776 119.397 29.328C118.917 28.8693 118.677 28.112 118.677 27.056V22.736H117.413V21.184H118.677V18.992H120.517V21.184H122.645V22.736H120.517V27.088C120.517 27.5893 120.608 27.936 120.789 28.128C120.981 28.32 121.312 28.416 121.781 28.416H122.661ZM132.562 25.168C132.562 25.4667 132.54 25.728 132.498 25.952H125.714C125.746 26.8587 125.996 27.5307 126.466 27.968C126.935 28.4053 127.516 28.624 128.21 28.624C128.818 28.624 129.33 28.4693 129.746 28.16C130.172 27.8507 130.434 27.44 130.53 26.928H132.482C132.364 27.5467 132.119 28.096 131.746 28.576C131.372 29.056 130.887 29.4347 130.29 29.712C129.692 29.9787 129.026 30.112 128.29 30.112C127.436 30.112 126.679 29.9307 126.018 29.568C125.367 29.2053 124.855 28.6827 124.482 28C124.108 27.3173 123.922 26.512 123.922 25.584C123.922 24.6667 124.108 23.8667 124.482 23.184C124.855 22.5013 125.367 21.9787 126.018 21.616C126.679 21.2533 127.436 21.072 128.29 21.072C129.154 21.072 129.906 21.2533 130.546 21.616C131.196 21.968 131.692 22.4587 132.034 23.088C132.386 23.7067 132.562 24.4 132.562 25.168ZM130.722 25.12C130.743 24.544 130.642 24.064 130.418 23.68C130.204 23.2853 129.906 22.9973 129.522 22.816C129.148 22.624 128.738 22.528 128.29 22.528C127.575 22.528 126.978 22.7467 126.498 23.184C126.018 23.6213 125.756 24.2667 125.714 25.12H130.722ZM142.515 25.168C142.515 25.4667 142.493 25.728 142.451 25.952H135.667C135.699 26.8587 135.949 27.5307 136.419 27.968C136.888 28.4053 137.469 28.624 138.163 28.624C138.771 28.624 139.283 28.4693 139.699 28.16C140.125 27.8507 140.387 27.44 140.483 26.928H142.435C142.317 27.5467 142.072 28.096 141.699 28.576C141.325 29.056 140.84 29.4347 140.243 29.712C139.645 29.9787 138.979 30.112 138.243 30.112C137.389 30.112 136.632 29.9307 135.971 29.568C135.32 29.2053 134.808 28.6827 134.435 28C134.061 27.3173 133.875 26.512 133.875 25.584C133.875 24.6667 134.061 23.8667 134.435 23.184C134.808 22.5013 135.32 21.9787 135.971 21.616C136.632 21.2533 137.389 21.072 138.243 21.072C139.107 21.072 139.859 21.2533 140.499 21.616C141.149 21.968 141.645 22.4587 141.987 23.088C142.339 23.7067 142.515 24.4 142.515 25.168ZM140.675 25.12C140.696 24.544 140.595 24.064 140.371 23.68C140.157 23.2853 139.859 22.9973 139.475 22.816C139.101 22.624 138.691 22.528 138.243 22.528C137.528 22.528 136.931 22.7467 136.451 23.184C135.971 23.6213 135.709 24.2667 135.667 25.12H140.675ZM147.812 21.072C148.612 21.072 149.295 21.2693 149.86 21.664C150.425 22.0587 150.82 22.5813 151.044 23.232V18.16H152.884V30H151.044V27.952C150.82 28.6027 150.425 29.1253 149.86 29.52C149.295 29.9147 148.612 30.112 147.812 30.112C147.044 30.112 146.356 29.9307 145.748 29.568C145.151 29.2053 144.681 28.6827 144.34 28C143.999 27.3173 143.828 26.512 143.828 25.584C143.828 24.6667 143.999 23.8667 144.34 23.184C144.681 22.5013 145.151 21.9787 145.748 21.616C146.356 21.2533 147.044 21.072 147.812 21.072ZM148.372 22.672C147.561 22.672 146.911 22.9333 146.42 23.456C145.94 23.968 145.7 24.6773 145.7 25.584C145.7 26.4907 145.94 27.2053 146.42 27.728C146.911 28.24 147.561 28.496 148.372 28.496C148.884 28.496 149.343 28.3787 149.748 28.144C150.153 27.8987 150.473 27.5573 150.708 27.12C150.943 26.6827 151.06 26.1707 151.06 25.584C151.06 25.008 150.943 24.5013 150.708 24.064C150.473 23.616 150.153 23.2747 149.748 23.04C149.343 22.7947 148.884 22.672 148.372 22.672ZM162.359 21.072C163.159 21.072 163.841 21.2693 164.407 21.664C164.972 22.0587 165.367 22.5813 165.591 23.232V18.16H167.431V30H165.591V27.952C165.367 28.6027 164.972 29.1253 164.407 29.52C163.841 29.9147 163.159 30.112 162.359 30.112C161.591 30.112 160.903 29.9307 160.295 29.568C159.697 29.2053 159.228 28.6827 158.887 28C158.545 27.3173 158.375 26.512 158.375 25.584C158.375 24.6667 158.545 23.8667 158.887 23.184C159.228 22.5013 159.697 21.9787 160.295 21.616C160.903 21.2533 161.591 21.072 162.359 21.072ZM162.919 22.672C162.108 22.672 161.457 22.9333 160.967 23.456C160.487 23.968 160.247 24.6773 160.247 25.584C160.247 26.4907 160.487 27.2053 160.967 27.728C161.457 28.24 162.108 28.496 162.919 28.496C163.431 28.496 163.889 28.3787 164.295 28.144C164.7 27.8987 165.02 27.5573 165.255 27.12C165.489 26.6827 165.607 26.1707 165.607 25.584C165.607 25.008 165.489 24.5013 165.255 24.064C165.02 23.616 164.7 23.2747 164.295 23.04C163.889 22.7947 163.431 22.672 162.919 22.672ZM177.812 25.168C177.812 25.4667 177.79 25.728 177.748 25.952H170.964C170.996 26.8587 171.246 27.5307 171.716 27.968C172.185 28.4053 172.766 28.624 173.46 28.624C174.068 28.624 174.58 28.4693 174.996 28.16C175.422 27.8507 175.684 27.44 175.78 26.928H177.732C177.614 27.5467 177.369 28.096 176.996 28.576C176.622 29.056 176.137 29.4347 175.54 29.712C174.942 29.9787 174.276 30.112 173.54 30.112C172.686 30.112 171.929 29.9307 171.268 29.568C170.617 29.2053 170.105 28.6827 169.732 28C169.358 27.3173 169.172 26.512 169.172 25.584C169.172 24.6667 169.358 23.8667 169.732 23.184C170.105 22.5013 170.617 21.9787 171.268 21.616C171.929 21.2533 172.686 21.072 173.54 21.072C174.404 21.072 175.156 21.2533 175.796 21.616C176.446 21.968 176.942 22.4587 177.284 23.088C177.636 23.7067 177.812 24.4 177.812 25.168ZM175.972 25.12C175.993 24.544 175.892 24.064 175.668 23.68C175.454 23.2853 175.156 22.9973 174.772 22.816C174.398 22.624 173.988 22.528 173.54 22.528C172.825 22.528 172.228 22.7467 171.748 23.184C171.268 23.6213 171.006 24.2667 170.964 25.12H175.972ZM181.397 18.16V30H179.573V18.16H181.397ZM183.348 18.624C183.348 18.3147 183.455 18.0587 183.668 17.856C183.881 17.6533 184.164 17.552 184.516 17.552C184.868 17.552 185.151 17.6533 185.364 17.856C185.588 18.0587 185.7 18.3147 185.7 18.624C185.7 18.9333 185.588 19.184 185.364 19.376C185.151 19.568 184.868 19.664 184.516 19.664C184.164 19.664 183.881 19.568 183.668 19.376C183.455 19.184 183.348 18.9333 183.348 18.624ZM185.428 21.184V30H183.604V21.184H185.428ZM191.251 28.112L193.747 21.184H195.699L192.339 30H190.131L186.771 21.184H188.723L191.251 28.112ZM205.234 25.168C205.234 25.4667 205.212 25.728 205.17 25.952H198.386C198.418 26.8587 198.668 27.5307 199.138 27.968C199.607 28.4053 200.188 28.624 200.882 28.624C201.49 28.624 202.002 28.4693 202.418 28.16C202.844 27.8507 203.106 27.44 203.202 26.928H205.154C205.036 27.5467 204.791 28.096 204.418 28.576C204.044 29.056 203.559 29.4347 202.962 29.712C202.364 29.9787 201.698 30.112 200.962 30.112C200.108 30.112 199.351 29.9307 198.69 29.568C198.039 29.2053 197.527 28.6827 197.154 28C196.78 27.3173 196.594 26.512 196.594 25.584C196.594 24.6667 196.78 23.8667 197.154 23.184C197.527 22.5013 198.039 21.9787 198.69 21.616C199.351 21.2533 200.108 21.072 200.962 21.072C201.826 21.072 202.578 21.2533 203.218 21.616C203.868 21.968 204.364 22.4587 204.706 23.088C205.058 23.7067 205.234 24.4 205.234 25.168ZM203.394 25.12C203.415 24.544 203.314 24.064 203.09 23.68C202.876 23.2853 202.578 22.9973 202.194 22.816C201.82 22.624 201.41 22.528 200.962 22.528C200.247 22.528 199.65 22.7467 199.17 23.184C198.69 23.6213 198.428 24.2667 198.386 25.12H203.394ZM208.819 22.912C209.117 22.336 209.544 21.8827 210.099 21.552C210.653 21.2107 211.293 21.04 212.019 21.04V23.024H211.475C210.675 23.024 210.029 23.2213 209.539 23.616C209.059 24 208.819 24.64 208.819 25.536V30H206.995V21.184H208.819V22.912ZM214.425 21.184L217.065 27.664L219.513 21.184H221.545L216.217 34.192H214.185L216.089 29.792L212.377 21.184H214.425Z" fill="black"/>
<path d="M8 34H6C4.89543 34 4 33.1046 4 32V16C4 14.8954 4.89543 14 6 14H28C29.1046 14 30 14.8954 30 16V32C30 33.1046 29.1046 34 28 34H16" stroke="#007878" stroke-width="2" stroke-linecap="square"/>
<path d="M40 34H42C43.1046 34 44 33.1046 44 32V25.6351C44 25.2916 43.9115 24.9539 43.7432 24.6546L40.5735 19.0195C40.2192 18.3897 39.5528 18 38.8303 18H32C30.8954 18 30 18.8954 30 20V32C30 33.1046 30.8954 34 32 34V34" stroke="#007878" stroke-width="2" stroke-linecap="square"/>
<path d="M12 38C14.2091 38 16 36.2091 16 34C16 31.7909 14.2091 30 12 30C9.79086 30 8 31.7909 8 34C8 36.2091 9.79086 38 12 38Z" stroke="#007878" stroke-width="2" stroke-linecap="square"/>
<path d="M36 38C38.2091 38 40 36.2091 40 34C40 31.7909 38.2091 30 36 30C33.7909 30 32 31.7909 32 34C32 36.2091 33.7909 38 36 38Z" stroke="#007878" stroke-width="2" stroke-linecap="square"/>
</svg>
